<?xml version="1.0" encoding="UTF-8" standalone="no"?>
<svg
   xmlns:dc="http://purl.org/dc/elements/1.1/"
   xmlns:cc="http://creativecommons.org/ns#"
   xmlns:rdf="http://www.w3.org/1999/02/22-rdf-syntax-ns#"
   xmlns:svg="http://www.w3.org/2000/svg"
   xmlns="http://www.w3.org/2000/svg"
   xmlns:sodipodi="http://sodipodi.sourceforge.net/DTD/sodipodi-0.dtd"
   xmlns:inkscape="http://www.inkscape.org/namespaces/inkscape"
   version="1.1"
   id="svg62"
   width="163.52"
   height="107.84"
   viewBox="0 0 163.52 107.84"
   sodipodi:docname="logo.jpg.svg"
   inkscape:version="1.0.2 (e86c870879, 2021-01-15, custom)">
  <metadata
     id="metadata68">
    <rdf:RDF>
      <cc:Work
         rdf:about="">
        <dc:format>image/svg+xml</dc:format>
        <dc:type
           rdf:resource="http://purl.org/dc/dcmitype/StillImage" />
        <dc:title />
      </cc:Work>
    </rdf:RDF>
  </metadata>
  <defs
     id="defs66" />
  <sodipodi:namedview
     pagecolor="#ffffff"
     bordercolor="#666666"
     borderopacity="1"
     objecttolerance="10"
     gridtolerance="10"
     guidetolerance="10"
     inkscape:pageopacity="0"
     inkscape:pageshadow="2"
     inkscape:window-width="1920"
     inkscape:window-height="1025"
     id="namedview64"
     showgrid="false"
     inkscape:zoom="0.47813892"
     inkscape:cx="437.37012"
     inkscape:cy="-375.76007"
     inkscape:window-x="0"
     inkscape:window-y="25"
     inkscape:window-maximized="1"
     inkscape:current-layer="g70"
     inkscape:document-rotation="0" />
  <g
     inkscape:groupmode="layer"
     inkscape:label="Image"
     id="g70">
    <path
       style="fill:#000000;stroke-width:2.18365"
       d="m -131.74734,-320.33941 0.64161,-15.8315 11.46418,-0.65992 11.46418,-0.65993 v -17.35509 -17.35514 h 7.6428 7.642784 v -26.96399 -26.96401 l 8.734619,-3.93877 8.734617,-3.93876 v -14.58861 c 0,-14.39424 0.116245,-14.68193 8.734618,-21.6078 l 8.734617,-7.01932 v -28.99587 c 0,-27.48555 0.263227,-29.24307 5.053951,-33.74374 3.527155,-3.31358 7.815078,-4.74795 14.193739,-4.74795 h 9.139801 v 58.9026 58.90258 l 6.550953,3.38763 6.550966,3.38763 v 23.96411 23.96412 h 8.9453544 8.945395 L 0.45902044,-382.5735 c -0.532167,-5.7048 -3.06211804,-18.06051 -5.62185004,-27.45716 -14.9184574,-54.76484 -9.8688104,-116.27797 14.19295,-172.89307 l 8.3525726,-19.6529 0.650046,13.64561 c 0.601153,12.62013 1.134482,13.89617 7.096892,16.97939 l 6.44681,3.33378 v -35.33297 c 0,-40.9009 -0.44108,-40.62558 19.27249,-12.02892 13.75548,19.95373 24.493,41.5766 31.59619,63.62715 9.76207,30.30487 11.34562,41.64687 11.12759,79.70336 -0.17672,30.88592 -0.97167,38.91427 -5.56615,56.22909 l -5.35977,20.1988 h 11.58699 11.586909 V -500.5821 -604.94282 l 9.82648,-9.64394 9.82639,-9.64393 v -99.99342 c 0,-65.20651 0.75965,-99.99341 2.18369,-99.99341 1.20094,0 2.18739,0.24571 2.19188,0.54581 0.004,0.30025 2.46113,18.58431 5.45917,40.63126 2.99795,22.04693 5.45082,41.36551 5.45082,42.93021 0,1.56468 8.80409,10.549 19.56458,19.96513 l 19.56457,17.12028 0.0884,39.38785 0.0884,39.38785 10.91824,10.7541 10.91833,10.7541 v 115.26983 115.26982 h 6.55096 6.5509 v -77.02499 -77.02503 l 17.46925,-17.36677 17.46921,-17.36676 17.46919,17.36676 17.46927,17.36677 v 77.02503 77.02502 h 6.55089 6.55104 v 17.35512 17.35511 l 11.46412,0.65992 11.46419,0.65993 0.64215,15.83148 0.64214,15.83151 H 94.902411 -132.38893 Z m 56.324749,-78.06563 c 0,-26.9779 -0.531088,-28.4105 -8.878181,-23.94335 -3.781648,2.02388 -4.223753,4.76662 -4.223753,26.20384 v 23.94337 h 6.550953 6.550981 z m 270.773061,-85.82594 v -112.02983 l -7.64279,-7.40767 -7.64277,-7.40769 v 119.43749 119.4375 h 7.64277 7.64279 z m 82.90759,37.23966 -0.0724,-74.79014 -14.12254,-12.72569 -14.12246,-12.72567 v 87.51581 87.51583 h 14.19372 14.19378 l -0.0724,-74.79014 z m -246.681619,46.40263 c 0,-5.10521 -0.23377,-5.16207 -7.54004,-1.83313 -7.471202,3.40409 -7.025153,6.20045 0.98905,6.20045 5.0952,0 6.55098,-0.97046 6.55099,-4.36732 z m 43.4074,-7.43396 c 13.2642,-35.4517 14.82101,-89.03112 3.81309,-131.22805 -5.83575,-22.37027 -23.19779,-61.21255 -31.72219,-70.96876 -4.55827,-5.21693 -4.53444,-4.97472 0.53667,5.45913 7.62347,15.68536 17.73665,45.2558 22.40459,65.50963 5.88567,25.53792 5.52877,74.27048 -0.72771,99.35625 -2.54609,10.20858 -6.66828,23.31009 -9.16041,29.11445 -5.95834,13.87717 -5.82002,14.55863 2.95465,14.55863 7.05734,0 7.73867,-0.67562 11.90136,-11.80128 z m -47.77471,-4.57614 c 0,-0.5161 -1.96529,-1.98996 -4.3673,-3.27547 -3.84078,-2.05553 -4.367319,-1.66066 -4.367319,3.27547 0,4.93613 0.526449,5.33102 4.367319,3.27548 2.40201,-1.28546 4.3673,-2.75948 4.3673,-3.27548 z m 4.36731,-11.96327 c 0,-6.14529 -0.30117,-6.3669 -5.45914,-4.01681 -3.00253,1.3681 -5.45912,3.1621 -5.45912,3.98679 0,1.16021 7.00941,5.47597 10.37234,6.38637 0.30025,0.0805 0.54602,-2.77907 0.54602,-6.35635 z m -6.55096,-10.99852 c 2.91152,-1.91132 2.91152,-2.38913 0,-4.30045 -4.90955,-3.22289 -6.550969,-2.68414 -6.550969,2.15022 0,4.83437 1.641419,5.37313 6.550969,2.15023 z m -85.162502,-16.61029 v -16.64376 l -4.913225,3.25093 c -4.056997,2.68441 -5.026523,5.58492 -5.563326,16.64375 -0.634186,13.06689 -0.514648,13.39279 4.913225,13.39279 5.475395,0 5.563326,-0.26309 5.563326,-16.64371 z m 91.713462,2.44999 c 0,-6.28696 -0.0884,-6.32011 -7.65971,-2.87044 l -5.68156,2.58867 5.0329,2.79306 c 7.17294,3.98072 8.30837,3.63751 8.30837,-2.51129 z m -4.36731,-13.10194 c 0,-0.51604 -1.96529,-1.98998 -4.3673,-3.27548 -3.84078,-2.05553 -4.367319,-1.66065 -4.367319,3.27548 0,4.93613 0.526449,5.33103 4.367319,3.27547 2.40201,-1.28546 4.3673,-2.75946 4.3673,-3.27547 z m 4.36731,-11.96328 c 0,-6.14527 -0.30117,-6.3669 -5.45914,-4.0168 -3.00253,1.3681 -5.45912,3.16211 -5.45912,3.9868 0,1.16021 7.00941,5.47594 10.37234,6.38636 0.30025,0.0805 0.54602,-2.77907 0.54602,-6.35636 z m -79.085324,-36.03659 c 0.550338,-22.98075 0.251422,-25.50274 -2.72956,-23.02874 -4.434185,3.68003 -5.024669,51.20451 -0.618134,49.74179 1.930112,-0.64069 2.910585,-8.46457 3.347611,-26.71305 z m 72.534364,25.03808 c 2.91152,-1.91132 2.91152,-2.38915 0,-4.30044 -4.90955,-3.2229 -6.550969,-2.68417 -6.550969,2.15021 0,4.83437 1.641419,5.37311 6.550969,2.15023 z m 6.55096,-14.16033 c 0,-6.28694 -0.0884,-6.32008 -7.65971,-2.87044 l -5.68156,2.58868 5.0329,2.79307 c 7.17294,3.98073 8.30837,3.6375 8.30837,-2.51131 z m -4.36731,-13.10192 c 0,-0.51604 -1.96529,-1.98996 -4.3673,-3.27548 -3.84078,-2.05552 -4.367319,-1.66065 -4.367319,3.27548 0,4.93614 0.526449,5.33103 4.367319,3.27547 2.40201,-1.28545 4.3673,-2.75948 4.3673,-3.27547 z m 4.36731,-11.96327 c 0,-6.1453 -0.30117,-6.3669 -5.45914,-4.01682 -3.00253,1.36809 -5.45912,3.16211 -5.45912,3.98682 0,1.16021 7.00941,5.47593 10.37234,6.38635 0.30025,0.0805 0.54602,-2.77907 0.54602,-6.35635 z m -6.55096,-10.99852 c 2.91152,-1.91132 2.91152,-2.38914 0,-4.30045 -4.90955,-3.22289 -6.550969,-2.68415 -6.550969,2.15022 0,4.83437 1.641419,5.37313 6.550969,2.15023 z m 6.55096,-14.16032 c 0,-6.28695 -0.0884,-6.32011 -7.65971,-2.87044 l -5.68156,2.58869 5.0329,2.79306 c 7.17294,3.98071 8.30837,3.63751 8.30837,-2.51131 z m -4.36731,-13.10193 c 0,-0.51605 -1.96529,-1.98995 -4.3673,-3.27547 -3.84078,-2.05555 -4.367319,-1.66066 -4.367319,3.27547 0,4.93613 0.526449,5.33103 4.367319,3.27548 2.40201,-1.28545 4.3673,-2.75948 4.3673,-3.27548 z M 158.83305,-709.82518 c -8.13912,-7.55512 -15.45094,-13.78331 -16.24839,-13.84042 -0.79739,-0.057 5.58975,21.07579 14.19378,46.96206 l 15.64368,47.06587 0.60488,-33.22545 0.60486,-33.22546 z"
       id="path100"
       sodipodi:nodetypes="ccccccccccccsscssscccccccccssscsscssssscccccccsscsssccccccccccccccccccccccccccccssscccscccccccccccccccccccssssssssssssssssssssssssssssscsssssscsssssssssssssssssssssscsssssssssssssssssscsssssssscscccs"
       inkscape:export-xdpi="94.210007"
       inkscape:export-ydpi="94.210007" />
    <text
       xml:space="preserve"
       style="font-style:normal;font-weight:normal;font-size:111.512px;line-height:1.25;font-family:sans-serif;fill:#000000;fill-opacity:1;stroke:none;stroke-width:2.78781"
       x="-286.94556"
       y="-161.9091"
       id="text104"
       inkscape:export-xdpi="94.210007"
       inkscape:export-ydpi="94.210007"><tspan
         sodipodi:role="line"
         id="tspan102"
         x="-286.94556"
         y="-161.9091"
         style="font-style:normal;font-variant:normal;font-weight:normal;font-stretch:normal;font-family:Stereofunk;-inkscape-font-specification:Stereofunk;stroke-width:2.78781">Samueland</tspan></text>
  </g>
</svg>
